<?xml version="1.0" encoding="UTF-8"?><svg id="b" xmlns="http://www.w3.org/2000/svg" viewBox="0 0 358.06 358.06"><defs><style>.d{stroke-width:6px;}.d,.e,.f,.g,.h,.i,.j,.k,.l{stroke:#000;}.d,.e,.f,.g,.h,.i,.j,.k,.l,.m{stroke-miterlimit:10;}.d,.l,.m{fill:none;}.n{fill:#f0fafc;}.o{fill:#edf9fc;}.p{fill:#308e33;}.q{fill:#c3d8db;}.r{fill:#dff7fd;}.s,.t{fill:#1e2121;}.e{fill:#fff;}.f{fill:#b27239;}.g{fill:#26db8d;}.h{fill:#3eba44;}.i{fill:#232e8c;}.j{fill:#12d88c;}.k{fill:#7935db;}.t,.u{opacity:.2;}.m{stroke:#c3d8db;}</style></defs><g id="c"><circle class="i" cx="178.74" cy="179.03" r="176.03"/><g><path class="r" d="M178.27,355.56C81.32,355.56,2.46,276.69,2.46,179.75v-.31l.28-.14c.27-.13,27.13-13.37,60.6-13.37,12.6,0,24.66,1.87,35.83,5.55,8.73,2.88,17.41,4.34,25.78,4.34,31.81,0,50.1-21.06,50.28-21.28l.04-.05,.05-.04c.1-.08,10.57-7.46,30.71-7.46s41.29,6.69,64.62,19.87c15.4,8.71,29.46,13.12,41.76,13.12,28.9,0,38.92-24.57,39.02-24.82l.7-1.77,.26,1.88c1.12,8.04,1.69,16.27,1.69,24.46,0,96.94-78.87,175.81-175.81,175.81Z"/><path d="M206.03,147.5c15.56,0,37.04,4.36,64.37,19.81,17.1,9.67,30.94,13.18,42.01,13.18,29.6,0,39.48-25.13,39.48-25.13,1.11,7.97,1.68,16.11,1.68,24.39,0,96.82-78.49,175.31-175.31,175.31S2.96,276.58,2.96,179.75c0,0,26.64-13.32,60.38-13.32,11.34,0,23.48,1.5,35.67,5.52,9.44,3.11,18.1,4.36,25.94,4.36,32.43,0,50.66-21.45,50.66-21.45,0,0,10.21-7.36,30.42-7.36m0-1c-20.3,0-30.58,7.24-31.01,7.55l-.1,.07-.08,.09c-.18,.21-18.34,21.1-49.9,21.1-8.32,0-16.94-1.45-25.63-4.31-11.22-3.7-23.33-5.57-35.99-5.57-33.58,0-60.56,13.29-60.82,13.43l-.55,.28v.62c0,23.8,4.66,46.89,13.86,68.63,8.88,21,21.59,39.85,37.78,56.04,16.19,16.19,35.05,28.9,56.04,37.78,21.74,9.19,44.83,13.86,68.63,13.86s46.89-4.66,68.63-13.86c21-8.88,39.85-21.59,56.04-37.78s28.9-35.05,37.78-56.04c9.19-21.74,13.86-44.83,13.86-68.63,0-8.21-.57-16.47-1.69-24.53l-.52-3.77-1.4,3.54c-.02,.06-2.5,6.22-8.48,12.29-7.99,8.1-18.1,12.21-30.07,12.21s-26.19-4.39-41.52-13.05c-23.41-13.23-45.23-19.94-64.86-19.94h0Z"/></g><path class="n" d="M353.58,179.75c0,.73,0,1.45-.01,2.18-4.19,8.25-25.3,41.51-80.88,10.19-62.98-35.51-95.03-12.45-95.03-12.45,0,0-28.17,33.07-76.79,17.09-47.29-15.54-93.69,6.53-96.18,7.74-1.14-8.09-1.73-16.35-1.73-24.75,0,0,47.56-23.77,96.05-7.79,48.5,15.98,76.61-17.09,76.61-17.09,0,0,31.97-23.07,94.79,12.44,62.83,35.51,81.49-11.95,81.49-11.95,1.11,7.97,1.68,16.11,1.68,24.39Z"/><g><polygon class="f" points="258.02 211.85 248.01 211.85 248.01 198.47 248.01 192.72 258.02 192.72 258.02 211.85"/><path class="t" d="M255.89,197.67h-8.1l-.02,1.54s3.71,1.29,7.19,.86l-4.55,11.78h7.38v-19.13l-1.91,4.95Z"/><g><path class="r" d="M253.01,198.17c-11.14,0-20.21-9.55-20.21-21.28,0-.38,0-.75,.03-1.13,.02-.28,.04-.54,.06-.79,.04-.18,.08-.28,.13-.38l7.14-14.07,10.38-20.44c.51-1.01,1.44-1.61,2.48-1.61s1.96,.6,2.48,1.61l17.52,34.51c.05,.1,.09,.2,.12,.31,.04,.33,.06,.58,.07,.84,.02,.4,.03,.78,.03,1.16,0,11.74-9.07,21.28-20.21,21.28Z"/><path d="M253.01,138.96c.79,0,1.58,.44,2.03,1.33l8.27,16.29,2.11,4.14,7.14,14.07c.03,.07,.06,.14,.08,.21,.03,.25,.04,.5,.06,.75v.02c.02,.37,.03,.74,.03,1.11,0,11.48-8.82,20.78-19.71,20.78s-19.71-9.3-19.71-20.78c0-.37,0-.74,.03-1.11v-.02c.02-.25,.03-.5,.06-.75,.02-.07,.04-.14,.08-.21l7.14-14.07,2.11-4.14,8.27-16.29c.45-.89,1.24-1.33,2.03-1.33m0-1c-1.23,0-2.32,.7-2.92,1.88l-8.27,16.29-2.11,4.14-7.14,14.07c-.07,.14-.12,.28-.16,.42l-.02,.07v.07c-.03,.26-.05,.52-.07,.78v.08c-.02,.36-.03,.74-.03,1.13,0,12.01,9.29,21.78,20.71,21.78s20.71-9.77,20.71-21.78c0-.39,0-.77-.03-1.16-.02-.3-.04-.56-.06-.82v-.07l-.02-.07c-.03-.14-.09-.28-.15-.41l-7.14-14.07-2.11-4.15-8.27-16.29c-.6-1.18-1.69-1.88-2.92-1.88h0Z"/></g><path class="q" d="M253.24,139.19c.78,0,1.56,.44,2.01,1.32l8.18,16.17,2.08,4.11,7.05,13.96c.03,.07,.06,.14,.08,.2,.03,.25,.04,.49,.06,.74v.02c.02,.37,.03,.73,.03,1.1,0,11.39-8.72,20.62-19.48,20.62"/><path class="h" d="M271.6,184.25c-2.74,8.02-10,13.74-18.55,13.74-7.72,0-14.39-4.67-17.62-11.47,.55,.49,4.67,4,8.06,2.17,3.64-1.96,6.27-5.26,10.38-4.43,4.11,.83,8.74-.32,10.36-1.94,1.56-1.57,7.01,1.71,7.37,1.93Z"/><path class="p" d="M269.75,187.71c-.33-.17-4.7-2.18-6.12-1-1.47,1.21-5.66,2.08-9.38,1.46-3.72-.63-6.11,1.85-9.4,3.32-2.84,1.27-6.02-.74-6.91-1.36,0,0-.52-.72-.52-.72-.54-.77-.73-1.01-1.15-1.86,.69,.42,4.04,3.06,7.35,1.36,3.56-1.82,6.12-5.15,10.14-4.37,4.01,.77,9.04-.46,10.63-1.97,1.53-1.46,6.52,1.62,6.87,1.83-.34,.95-.59,1.64-1.07,2.52"/></g><g><path class="e" d="M205.02,229.26h-51.97c0-17.67,11.63-32,25.98-32s25.99,14.33,25.99,32Z"/><g><path class="o" d="M103.84,230.12v-.5c0-41.36,33.73-75.01,75.18-75.01s75.19,33.65,75.19,75.01v.5H103.84Z"/><path d="M179.03,155.11c41.25,0,74.69,33.36,74.69,74.51H104.34c0-41.15,33.44-74.51,74.68-74.51m0-1c-41.73,0-75.68,33.87-75.68,75.51v1H254.72v-1c0-41.64-33.96-75.51-75.69-75.51h0Z"/></g><path class="m" d="M134.53,169.58s44.18,12.29,88.7,0"/><path class="m" d="M118.63,185.94s59.99,9.37,120.46,0"/><path class="m" d="M109.73,201.68s68.87,3.55,138.28,0"/><path class="m" d="M105.35,216.42s73.33,2.99,147.24,0"/><path class="m" d="M152.45,159.82s26.3,4.71,52.8,0"/><line class="m" x1="159.48" y1="160.86" x2="151.46" y2="173.03"/><line class="m" x1="170.79" y1="155.45" x2="166.78" y2="161.53"/><line class="m" x1="198.58" y1="160.86" x2="209" y2="172.51"/><line class="m" x1="189.05" y1="155.75" x2="194.19" y2="161.49"/><line class="m" x1="133.47" y1="188.02" x2="128.76" y2="202.42"/><line class="m" x1="126.95" y1="217.08" x2="126.95" y2="229.48"/><line class="m" x1="145.49" y1="202.87" x2="143.85" y2="217.08"/><line class="m" x1="154.1" y1="173.36" x2="148.79" y2="189.02"/><line class="m" x1="203.88" y1="173.36" x2="212.57" y2="188.95"/><line class="m" x1="221.69" y1="188.49" x2="227.9" y2="202.47"/><line class="m" x1="195.47" y1="190.1" x2="196.2" y2="203.26"/><line class="m" x1="167" y1="217.18" x2="167" y2="229.58"/><line class="m" x1="179.03" y1="175.41" x2="179.03" y2="161.97"/><line class="m" x1="182.51" y1="175.08" x2="182.51" y2="190.1"/><line class="m" x1="190.24" y1="217.18" x2="190.24" y2="229.58"/><line class="m" x1="230.39" y1="217.18" x2="230.39" y2="229.58"/><line class="m" x1="209.79" y1="202.87" x2="210.64" y2="217.54"/><line class="m" x1="169.64" y1="203.21" x2="168.83" y2="217.71"/><line class="m" x1="167" y1="189.59" x2="165.48" y2="202.98"/><line class="m" x1="233.03" y1="201.99" x2="234.84" y2="217.03"/><g><path class="o" d="M152.55,230.12v-.5c0-17.92,11.88-32.5,26.48-32.5s26.49,14.58,26.49,32.5v.5h-52.97Z"/><path d="M179.03,197.62c14.35,0,25.99,14.33,25.99,32h-51.97c0-17.67,11.63-32,25.98-32m0-1c-14.88,0-26.98,14.81-26.98,33v1h53.97v-1c0-18.2-12.11-33-26.99-33h0Z"/></g><line class="m" x1="153.34" y1="222.68" x2="204.61" y2="222.68"/><line class="m" x1="156.06" y1="213.71" x2="201.43" y2="213.71"/><line class="m" x1="179.03" y1="197.62" x2="179.03" y2="229.58"/><line class="m" x1="165.48" y1="202.98" x2="179.03" y2="219.74"/><line class="m" x1="194.02" y1="202.98" x2="180.48" y2="219.74"/><path d="M198.22,229.58h-38.37c0-13.05,8.59-23.63,19.18-23.63s19.19,10.58,19.19,23.63Z"/><path class="l" d="M205.02,229.62h-51.97c0-17.67,11.63-32,25.98-32s25.99,14.33,25.99,32Z"/><path class="l" d="M253.72,229.62H104.34c0-41.15,33.44-74.51,74.68-74.51s74.69,33.36,74.69,74.51Z"/><path class="t" d="M212.22,162.71c25.02,12.04,42.28,37.58,42.28,67.15h-63.03"/></g><g><polygon class="f" points="104.78 255.38 86.85 255.38 86.85 231.41 86.85 221.12 104.78 221.12 104.78 255.38"/><path class="t" d="M100.97,229.98h-14.51l-.03,2.77s6.64,2.32,12.87,1.55l-8.14,21.09h13.23v-34.27l-3.42,8.86Z"/><g><path class="r" d="M95.81,230.48c-19.74,0-35.8-16.92-35.8-37.73,0-.67,.02-1.34,.05-2.01,.03-.52,.06-.96,.11-1.4,.05-.23,.11-.39,.19-.54l12.79-25.2,3.77-7.42,14.82-29.19c.85-1.67,2.37-2.67,4.08-2.67s3.23,1,4.08,2.67l14.82,29.19,3.77,7.42,12.78,25.2c.08,.16,.14,.32,.18,.47,.06,.52,.09,.97,.12,1.43,.03,.71,.05,1.38,.05,2.05,0,20.8-16.06,37.73-35.8,37.73Z"/><path d="M95.81,124.82c1.41,0,2.83,.8,3.63,2.39l14.82,29.19,3.77,7.42,12.78,25.2c.06,.12,.11,.25,.14,.37,.05,.45,.08,.89,.11,1.34v.03c.03,.66,.05,1.32,.05,1.99,0,20.56-15.8,37.23-35.3,37.23s-35.3-16.67-35.3-37.23c0-.66,.02-1.32,.05-1.99v-.03c.03-.45,.06-.89,.11-1.34,.03-.12,.08-.25,.14-.37l12.78-25.2,3.77-7.42,14.82-29.19c.81-1.59,2.22-2.39,3.63-2.39m0-1c-1.9,0-3.59,1.1-4.53,2.94l-14.82,29.19-3.77,7.42-12.78,25.2c-.1,.19-.17,.39-.22,.58l-.02,.07v.07c-.05,.46-.09,.91-.12,1.37v.08c-.03,.66-.05,1.34-.05,2.02,0,21.08,16.28,38.23,36.3,38.23s36.3-17.15,36.3-38.23c0-.67-.02-1.36-.05-2.03h0v-.05c-.03-.46-.06-.92-.11-1.37v-.07l-.02-.07c-.05-.19-.12-.39-.21-.57l-12.79-25.2-3.77-7.42-14.82-29.19c-.93-1.84-2.63-2.94-4.53-2.94h0Z"/></g><path class="q" d="M96.22,125.22c1.4,0,2.79,.79,3.59,2.37l14.64,28.97,3.73,7.37,12.63,25.01c.06,.12,.11,.24,.14,.37,.05,.44,.08,.89,.11,1.33v.03c.03,.66,.05,1.31,.05,1.97,0,20.41-15.62,36.94-34.89,36.94"/><path class="h" d="M129.1,205.94c-4.9,14.36-17.92,24.62-33.23,24.62-13.82,0-25.78-8.36-31.57-20.55,.99,.88,8.37,7.16,14.43,3.88,6.52-3.51,11.23-9.43,18.6-7.93,7.36,1.49,15.65-.58,18.56-3.48,2.8-2.81,12.56,3.06,13.21,3.46Z"/><path class="p" d="M125.8,212.14c-.6-.3-8.42-3.9-10.96-1.79-2.64,2.17-10.14,3.73-16.81,2.61-6.67-1.12-10.94,3.31-16.84,5.95-5.08,2.28-10.79-1.32-12.38-2.43,0,0-.94-1.3-.94-1.3-.97-1.38-1.3-1.81-2.06-3.34,1.23,.75,7.24,5.48,13.16,2.43,6.37-3.26,10.96-9.23,18.16-7.83,7.19,1.38,16.2-.83,19.04-3.53,2.73-2.61,11.68,2.9,12.31,3.27-.61,1.7-1.05,2.94-1.92,4.51"/></g><g class="u"><path class="s" d="M352.51,181.1c0,97.64-78.77,173.96-175.55,173.96-28.86,0-54.56-7.04-78.56-19.5,44.35,6.56,93.48-1.35,139.07-25.6,62.79-33.4,101.97-94.34,113.37-153.06,.53,5.58,1.67,24.21,1.67,24.21Z"/></g><g><path class="j" d="M240.57,13.68c-8.1,3.28-13.81,1.71-19.34,.18-5.75-1.58-11.19-3.07-19.33,.55-8.13,3.61-10.67,8.64-13.36,13.97-2.68,5.34-5.46,10.86-14.11,14.7-8.65,3.84-14.61,2.21-20.37,.61-5.75-1.58-11.18-3.07-19.32,.55-8.14,3.61-10.67,8.64-13.35,13.97-2.68,5.34-5.47,10.86-14.12,14.7-8.66,3.85-14.61,2.21-20.38,.62-5.74-1.59-11.18-3.07-19.31,.54-8.14,3.61-10.67,8.64-13.35,13.97-2.69,5.34-5.47,10.86-14.11,14.7-8.08,3.59-13.8,2.41-19.2,.94,.26-.56,.53-1.12,.8-1.67,1.71-3.52,3.54-6.96,5.47-10.34,2.15-.27,4.48-.91,7.09-2.07,8.13-3.61,10.67-8.64,13.34-13.96,2.69-5.35,5.46-10.87,14.13-14.71,8.65-3.84,14.59-2.2,20.37-.62,5.75,1.58,11.18,3.08,19.32-.54,8.14-3.62,10.67-8.64,13.35-13.97,2.68-5.34,5.47-10.86,14.11-14.7,8.65-3.84,14.62-2.21,20.37-.62,5.76,1.58,11.18,3.08,19.32-.54,8.14-3.61,10.68-8.64,13.36-13.97,2.22-4.42,4.5-8.96,10.13-12.56,15.9,1.07,31.22,4.25,45.68,9.27,.94,.32,1.87,.66,2.81,1Z"/><path class="k" d="M254.49,19.46c-.17,.17-.34,.33-.52,.5-1.85,1.72-4.2,3.31-7.3,4.69-3.13,1.39-5.9,2.06-8.44,2.27-4.49,.4-8.25-.63-11.93-1.65-5.75-1.58-11.19-3.07-19.34,.54-8.12,3.61-10.67,8.65-13.35,13.98-1.73,3.44-3.5,6.96-6.86,10.06-1.85,1.7-4.18,3.28-7.25,4.64-3.03,1.35-5.73,2.02-8.21,2.26h-.05c-4.57,.43-8.38-.62-12.11-1.65-5.76-1.58-11.18-3.07-19.32,.54-8.14,3.62-10.67,8.65-13.36,13.97-1.73,3.45-3.5,6.97-6.86,10.07-1.85,1.7-4.18,3.28-7.25,4.64-3.03,1.35-5.73,2.02-8.2,2.26h-.08c-4.57,.43-8.37-.62-12.1-1.64-5.74-1.59-11.18-3.08-19.31,.53-8.14,3.62-10.67,8.65-13.36,13.97-1.73,3.44-3.5,6.95-6.84,10.03-1.85,1.72-4.19,3.3-7.27,4.68-3.03,1.35-5.73,2.02-8.2,2.26h-.07c-4.57,.43-8.38-.62-12.1-1.65-2.65-.73-5.23-1.43-8.04-1.63,.19-.48,.39-.96,.59-1.43,1.12-2.71,2.3-5.38,3.56-8.02,.26-.56,.53-1.12,.8-1.67,5.15,1.36,10.29,2.26,17.63-1,8.12-3.61,10.67-8.65,13.34-13.97,2.69-5.35,5.46-10.86,14.12-14.71,8.65-3.84,14.6-2.2,20.37-.61,5.76,1.58,11.18,3.07,19.32-.54,8.14-3.62,10.67-8.65,13.36-13.97,2.68-5.34,5.46-10.86,14.11-14.71,8.65-3.84,14.61-2.2,20.37-.61,5.75,1.58,11.18,3.07,19.32-.54,8.14-3.62,10.67-8.65,13.36-13.97,2.67-5.34,5.46-10.86,14.11-14.7,8.66-3.85,14.61-2.21,20.38-.62,4.99,1.36,9.75,2.67,16.25,.62,.94,.32,1.87,.66,2.81,1,4.72,1.73,9.34,3.65,13.87,5.76,0,.01,.03,.02,.05,.02Z"/><path class="g" d="M266.52,25.67c-2.31,5.38-5.11,10.76-13.05,14.29-8.65,3.85-14.84,1.69-20.82-.41-5.98-2.08-11.63-4.04-19.77-.42-8.13,3.61-10.46,9.12-12.92,14.94-2.46,5.85-5.01,11.89-13.66,15.73-8.65,3.84-14.84,1.69-20.83-.41-5.97-2.08-11.61-4.05-19.75-.43-8.14,3.61-10.46,9.12-12.92,14.94-2.46,5.85-5.01,11.89-13.66,15.73-8.66,3.85-14.84,1.69-20.84-.4-5.96-2.09-11.61-4.05-19.74-.44-8.14,3.61-10.46,9.11-12.92,14.94-2.47,5.85-5.01,11.89-13.66,15.73-8.66,3.85-14.84,1.69-20.82-.41-5.97-2.08-11.61-4.05-19.75-.43l-.04-.09c1.57-5.24,3.37-10.38,5.4-15.4,.19-.48,.39-.96,.59-1.43,2.9,.43,5.56,1.36,8.19,2.28,3.69,1.29,7.25,2.53,11.36,2.43h.07c2.52-.06,5.24-.63,8.32-2,3.13-1.4,5.41-3.07,7.15-4.94,2.8-2.97,4.26-6.43,5.76-10,2.47-5.85,5.01-11.88,13.67-15.73,8.65-3.84,14.83-1.68,20.82,.41,3.69,1.28,7.26,2.53,11.36,2.43h.08c2.52-.06,5.24-.63,8.32-2,3.12-1.38,5.38-3.04,7.13-4.9,2.81-2.98,4.27-6.45,5.79-10.04,2.46-5.85,5.01-11.89,13.66-15.73,8.65-3.84,14.84-1.69,20.82,.41,3.7,1.29,7.27,2.53,11.38,2.43h.05c2.52-.06,5.24-.63,8.32-2,3.12-1.39,5.39-3.05,7.14-4.9,2.81-2.98,4.27-6.44,5.79-10.04,2.45-5.85,5.01-11.89,13.65-15.73,8.67-3.85,14.85-1.69,20.84,.4,3.64,1.27,7.16,2.5,11.2,2.44,2.59-.03,5.38-.59,8.56-2,3.15-1.4,5.43-3.08,7.18-4.96,.16-.17,.32-.34,.47-.52,0,.01,.03,.02,.05,.02,4.1,1.92,8.11,3.99,12.03,6.21Z"/></g><circle class="d" cx="179.03" cy="179.03" r="176.03"/><g><polygon class="r" points="286.59 72.94 285.09 72.12 286.59 71.31 287.41 69.81 288.23 71.31 289.73 72.12 288.23 72.94 287.41 74.44 286.59 72.94"/><path d="M287.41,70.85l.45,.83,.83,.45-.83,.45-.45,.83-.45-.83-.83-.45,.83-.45,.45-.83m0-2.08l-.88,1.6-.31,.57-.57,.31-1.6,.88,1.6,.88,.57,.31,.31,.57,.88,1.6,.88-1.6,.31-.57,.57-.31,1.6-.88-1.6-.88-.57-.31-.31-.57-.88-1.6h0Z"/></g><g><polygon class="r" points="108.09 118.56 103.91 116.28 108.09 113.99 110.38 109.82 112.66 113.99 116.84 116.28 112.66 118.56 110.38 122.74 108.09 118.56"/><path d="M110.38,110.86l1.92,3.5,3.5,1.92-3.5,1.92-1.92,3.5-1.92-3.5-3.5-1.92,3.5-1.92,1.92-3.5m0-2.08l-.88,1.6-1.78,3.25-3.25,1.78-1.6,.88,1.6,.88,3.25,1.78,1.78,3.25,.88,1.6,.88-1.6,1.78-3.25,3.25-1.78,1.6-.88-1.6-.88-3.25-1.78-1.78-3.25-.88-1.6h0Z"/></g><g><polygon class="r" points="209.05 102.09 202.75 98.64 209.05 95.19 212.5 88.88 215.95 95.19 222.26 98.64 215.95 102.09 212.5 108.4 209.05 102.09"/><path d="M212.5,89.92l3.08,5.63,5.63,3.08-5.63,3.08-3.08,5.63-3.08-5.63-5.63-3.08,5.63-3.08,3.08-5.63m0-2.08l-.88,1.6-2.94,5.38-5.38,2.94-1.6,.88,1.6,.88,5.38,2.94,2.94,5.38,.88,1.6,.88-1.6,2.94-5.38,5.38-2.94,1.6-.88-1.6-.88-5.38-2.94-2.94-5.38-.88-1.6h0Z"/></g><g><polygon class="r" points="286.4 160.4 282.91 158.49 286.4 156.58 288.31 153.09 290.22 156.58 293.71 158.49 290.22 160.4 288.31 163.89 286.4 160.4"/><path d="M288.31,154.13l1.54,2.82,2.82,1.54-2.82,1.54-1.54,2.82-1.54-2.82-2.82-1.54,2.82-1.54,1.54-2.82m0-2.08l-.88,1.6-1.4,2.56-2.56,1.4-1.6,.88,1.6,.88,2.56,1.4,1.4,2.56,.88,1.6,.88-1.6,1.4-2.56,2.56-1.4,1.6-.88-1.6-.88-2.56-1.4-1.4-2.56-.88-1.6h0Z"/></g></g></svg>